<svg xmlns="http://www.w3.org/2000/svg" id="svg8" version="1.1" viewBox="0 0 316.317 241.39"><style id="style1228">.wire{stroke-opacity:1;stroke-width:.55;stroke-miterlimit:4;stroke-linejoin:miter;stroke-linecap:butt;stroke-dasharray:none;stroke:#000;mix-blend-mode:normal;fill:none;display:inline}text.value-label,text.value-label tspan{display:inline;fill:#000;fill-opacity:1;font-family:monospace;font-size:3.88056px;font-stretch:normal;font-style:normal;font-variant:normal;font-variant-caps:normal;font-variant-east-asian:normal;font-variant-ligatures:normal;font-variant-numeric:normal;font-weight:400;-inkscape-font-specification:&apos;monospace, Normal&apos;;line-height:1.25;stroke:none;stroke-width:.264583;text-align:center;text-anchor:middle}text.value-label{filter:url(#bg-filter)}.component{stroke-width:.3;stroke-opacity:1;stroke-miterlimit:4;stroke-linejoin:round;stroke-linecap:round;stroke:#000;fill-rule:evenodd;fill-opacity:1;fill:#fffffd}.component-name{font-style:normal;text-anchor:middle;text-align:center;stroke-width:.264583;stroke:none;line-height:1.25;-inkscape-font-specification:&apos;Arial, Bold&apos;;font-weight:700;font-variant-numeric:normal;font-variant-ligatures:normal;font-variant-east-asian:normal;font-variant-caps:normal;font-variant:normal;font-stretch:normal;font-size:4.58611px;font-family:Arial;fill-opacity:1;fill:#000}.label{stroke-width:.264583;stroke:none;line-height:1.25;-inkscape-font-specification:&apos;Arial, Normal&apos;;font-weight:400;font-variant-numeric:normal;font-variant-ligatures:normal;font-variant-east-asian:normal;font-variant-caps:normal;font-variant:normal;font-style:normal;font-stretch:normal;font-size:4.58611px;font-family:Arial;fill-opacity:1;fill:#000}.label-small{stroke-width:.264583;stroke:none;line-height:1.25;-inkscape-font-specification:&apos;Arial, Normal&apos;;font-weight:400;font-variant-numeric:normal;font-variant-ligatures:normal;font-variant-east-asian:normal;font-variant-caps:normal;font-variant:normal;font-style:normal;font-stretch:normal;font-size:3.52778px;font-family:Arial;fill-opacity:1;fill:#000}</style><defs id="defs2"><marker id="Arrow" orient="auto" refX="0" refY="0" style="overflow:visible"><path id="path887" d="M8.719 4.034-2.207.016 8.719-4.002c-1.746 2.372-1.736 5.618 0 8.036z" class="wire" style="fill:#000;fill-opacity:1;fill-rule:evenodd;stroke-width:.625;stroke-linejoin:round" transform="scale(-.6)"/></marker><marker id="Junction" orient="auto" refX="0" refY="0" style="overflow:visible"><path id="path924" d="M-2.5-1c0 2.76-2.24 5-5 5s-5-2.24-5-5 2.24-5 5-5 5 2.24 5 5z" class="wire" style="fill:#000;fill-opacity:1;fill-rule:evenodd;stroke-width:1pt" transform="matrix(.4 0 0 .4 2.96 .4)"/></marker><filter id="bg-filter" width="1" height="1" x="0" y="0" style="color-interpolation-filters:sRGB"><feFlood id="feFlood705" flood-color="#FFF" flood-opacity=".75" result="result1"/><feComposite id="feComposite707" in="SourceGraphic" in2="result1"/></filter></defs><g id="background" style="display:inline"><rect id="rect1943" width="316.317" height="241.39" x="0" y="0" style="display:inline;mix-blend-mode:normal;fill:#fffffd;fill-opacity:1;stroke:#000;stroke-width:.265;stroke-miterlimit:4;stroke-dasharray:0,2.915;stroke-dashoffset:2.65"/></g><g id="diagram" style="display:inline;opacity:1;mix-blend-mode:normal"><g id="regFile-readData2" class="wires"><path id="path858-0" d="M168.168 160.644h2.894 24.848" class="wire" style="marker-mid:url(#Junction);marker-end:url(#Arrow)"/><path id="path858-1" d="m171.069 160.62-.097 26.513 80.486.063" class="wire" style="marker-end:url(#Arrow)"/><text xml:space="preserve" id="text711-6-6-5-6-8-3-2" x="195.826" y="188.609" class="value-label" style="text-anchor:middle"><tspan id="tspan709-4-2-8-2-4-6-6" x="195.826" y="188.609" style="text-anchor:middle">Label</tspan></text></g><g id="regFile-readData1" class="wires"><path id="path858-5-8" d="M182.54 139.471V42.238h9.727" class="wire" style="marker-start:url(#Junction);marker-end:url(#Arrow)"/><path id="path-1-1-1" d="M168.045 139.453h44.869" class="wire" style="marker-end:url(#Arrow)"/><text xml:space="preserve" id="text711-6-6-5-6-8-3-2-0" x="196.435" y="140.81" class="value-label" style="text-anchor:middle"><tspan id="tspan709-4-2-8-2-4-6-6-2" x="196.435" y="140.81" style="text-anchor:middle">Label</tspan></text></g><path id="aluInputMux-out" d="M204.795 167.773h8.167" class="wire" style="marker-end:url(#Arrow)"/><path id="dataMem-readData" d="M289.127 159.074h9.495" class="wire" style="marker-end:url(#Arrow)"/><g id="alu-result" class="wires"><path id="path858-03" d="m245.681 159.094.046 43.547 47.259.006.09-26.888 5.553.013" class="wire" style="marker-start:url(#Junction);marker-end:url(#Arrow)"/><path id="path858-56-0" d="M242.628 159.094h8.95" class="wire" style="marker-end:url(#Arrow)"/><text xml:space="preserve" id="text711-6-6-5-6-8-3-2-6" x="270.848" y="204.086" class="value-label" style="text-anchor:middle"><tspan id="tspan709-4-2-8-2-4-6-6-8" x="270.848" y="204.086" style="text-anchor:middle">Label</tspan></text></g><g id="pc-out" class="wires"><path id="path858-9" d="M21.443 135.037h9.077" class="wire" style="marker-end:url(#Arrow)"/><path id="path858-5-6" d="m24.391 135.022-.156-116.666 21.746-.009" class="wire" style="marker-start:url(#Junction);marker-end:url(#Arrow)"/><path id="path858-7" d="M24.333 64.604h80.263l.074-38.25 87.755.028" class="wire" style="marker-start:url(#Junction);marker-end:url(#Arrow)"/><text xml:space="preserve" id="text711-6-6-5-6-8-6-9-2-6-2" x="53.994" y="66.009" class="value-label"><tspan id="tspan709-4-2-8-2-4-2-9-0-6-2" x="53.994" y="66.009" style="text-anchor:middle">Label</tspan></text></g><path id="jumpControl-takeBranch" d="m256.21 72.382 17.278-.013-.172-24.302" class="wire"/><g id="pcAdd4-result" class="wires"><path id="path858-7-4" d="m64.695 31.798 27.803.043.067-12.294 176.024.048" class="wire" style="marker-end:url(#Arrow)"/><path id="path858-06" d="m244.431 19.627-.024-7.392 45.106-.015.22 130.444 8.896-.016" class="wire" style="marker-start:url(#Junction);marker-end:url(#Arrow)"/><text xml:space="preserve" id="text711-6-6-5-6-8-6-9-2-6" x="121.46" y="20.961" class="value-label"><tspan id="tspan709-4-2-8-2-4-2-9-0-6" x="121.46" y="20.961" style="text-anchor:middle">Label</tspan></text></g><path id="alu-zero" d="M247.746 85.029c-.02 21.332-.034 44.147-.033 62.747h-5.1" class="wire"/><g id="instrMem"><rect id="rect1057" width="31.876" height="45.628" x="31.203" y="128.441" class="component"/><text xml:space="preserve" id="text118" x="71.112" y="200.546" class="label" style="white-space:pre;inline-size:28.0449" transform="translate(-37.32 -66.21)"><tspan id="tspan2581" x="71.112" y="200.546">Read </tspan><tspan id="tspan2583" x="71.112" y="206.278">Address</tspan></text><text xml:space="preserve" id="text146" x="95.263" y="200.546" class="label" style="text-align:end;text-anchor:end;white-space:pre;inline-size:32.9187" transform="translate(-34.173 -48.427)"><tspan id="tspan2585" x="95.263" y="200.546">Instruction<tspan id="tspan2587" y="200.546"> </tspan></tspan><tspan id="tspan2589" x="95.263" y="206.278">[31-0]</tspan></text><text xml:space="preserve" id="text174" x="85.06" y="200.546" class="component-name" style="white-space:pre;inline-size:27.6026" transform="translate(-38.059 -34.803)"><tspan id="tspan2591" x="85.06" y="200.546">Instruction<tspan id="tspan2593" y="200.546"> </tspan></tspan><tspan id="tspan2595" x="85.06" y="206.278">Memory</tspan></text></g><g id="immGen"><ellipse id="ellipse342" cx="146.86" cy="203.357" class="component" rx="10.048" ry="13.285"/><text xml:space="preserve" id="text1143-9" x="132.551" y="188.572" class="component-name" style="white-space:pre;inline-size:10.538;mix-blend-mode:normal" transform="translate(14.405 13.896)"><tspan id="tspan2597" x="132.551" y="188.572">Imm<tspan id="tspan2599" y="188.572"> </tspan></tspan><tspan id="tspan2601" x="132.551" y="194.305">Gen</tspan></text></g><g id="pc"><rect id="rect352" width="10.318" height="33.092" x="11.005" y="118.513" class="component"/><text id="text208" x="18.859" y="136.02" class="component-name"><tspan id="tspan206" x="16.224" y="136.02">PC</tspan></text></g><g id="aluControl"><ellipse id="ellipse358" cx="201.089" cy="212.377" class="component" rx="10.194" ry="15.044"/><text xml:space="preserve" id="text231" x="80.387" y="200.546" class="component-name" style="white-space:pre;inline-size:23.8877" transform="translate(120.578 9.998)"><tspan id="tspan2603" x="80.387" y="200.546">ALU<tspan id="tspan2605" y="200.546"> </tspan></tspan><tspan id="tspan2607" x="80.387" y="206.278">Control</tspan></text></g><g id="control"><ellipse id="ellipse372" cx="123.245" cy="89.604" class="component" rx="10.363" ry="31.201"/><text id="text251" x="132.447" y="91.072" class="component-name"><tspan id="tspan249" x="123.275" y="91.072">Control</tspan></text></g><g id="pcAdd4"><path id="path383" d="M47.014 52.282V36.073l4.408-4.989-4.52-5.207V10.541l17.696 10.735v19.427s-13.745 9.362-17.584 11.579" class="component"/><text id="text267" x="62.213" y="32.727" class="component-name"><tspan id="tspan265" x="58" y="32.727">Add</tspan></text></g><g id="jumpControl"><ellipse id="ellipse390" cx="247.663" cy="72.143" class="component" rx="8.504" ry="12.757"/><text xml:space="preserve" id="text291" x="79.304" y="200.546" class="component-name" style="font-size:3.88056px;line-height:1.25;white-space:pre;inline-size:17.1246" transform="translate(168.343 -130.396)"><tspan id="tspan2609" x="79.304" y="200.546">Jump<tspan id="tspan2611" y="200.546"> </tspan></tspan><tspan id="tspan2613" x="79.304" y="205.396">Control</tspan></text></g><g id="instrMem-instruction-rd" class="wires"><path id="path858" d="M68.488 162.939h55.73" class="wire" style="marker-start:url(#Junction);marker-end:url(#Arrow)"/><text id="text321" x="72.413" y="160.003" class="label"><tspan id="tspan319" x="72.413" y="160.003">Instruction [11-7]</tspan></text><text xml:space="preserve" id="text711-6-6-5-6" x="96.405" y="164.555" class="value-label"><tspan id="tspan709-4-2-8-2" x="96.405" y="164.555" style="text-anchor:middle">Label</tspan></text></g><g id="instrMem-instruction-rs2" class="wires"><path id="path858-5" d="M68.488 144.947h55.73" class="wire" style="marker-start:url(#Junction);marker-end:url(#Arrow)"/><text id="text354" x="72.363" y="141.898" class="label"><tspan id="tspan352" x="72.363" y="141.898">Instruction [24-20]</tspan></text><text xml:space="preserve" id="text711-6-6-5" x="96.34" y="146.401" class="value-label"><tspan id="tspan709-4-2-8" x="96.34" y="146.401" style="text-anchor:middle">Label</tspan></text></g><g id="instrMem-instruction-rs1" class="wires"><path id="path858-5-2" d="M68.488 132.058h55.73" class="wire" style="marker-start:url(#Junction);marker-end:url(#Arrow)"/><text id="text387" x="72.664" y="128.932" class="label"><tspan id="tspan385" x="72.664" y="128.932">Instruction [19-15]</tspan></text><text xml:space="preserve" id="text711-6-6" x="96.296" y="133.521" class="value-label"><tspan id="tspan709-4-2" x="96.296" y="133.521" style="text-anchor:middle">Label</tspan></text></g><g id="instrMem-instruction-opcode" class="wires"><path id="path858-5-2-9-8" d="M68.488 82.186h43.941" class="wire" style="marker-start:url(#Junction);marker-end:url(#Arrow)"/><text id="text418" x="71.048" y="78.85" class="label"><tspan id="tspan416" x="71.048" y="78.85">Instruction [6-0]</tspan></text><text xml:space="preserve" id="text711" x="90.007" y="83.697" class="value-label"><tspan id="tspan709" x="90.007" y="83.697" style="text-anchor:middle">Label</tspan></text></g><g id="control-regWrite" class="wires"><path id="path858-5-2-54" d="M126.984 118.609h19.042l-.02 5.355" class="wire"/><text id="text441" x="135.15" y="116.983" class="label"><tspan id="tspan439" x="135.15" y="116.983">RegWrite</tspan></text></g><g id="control-aluSrc" class="wires"><path id="path858-5-2-54-8" d="M130.513 111.88h40.471l.05 37.168h29.26v6.803" class="wire"/><text id="text460" x="135.518" y="110.52" class="label"><tspan id="tspan458" x="135.518" y="110.52">ALUSrc</tspan></text></g><g id="control-memWrite" class="wires"><path id="path858-5-2-54-1" d="m132.176 105.159 132.108.018-.117 38.4" class="wire"/><text id="text481" x="135.171" y="103.842" class="label"><tspan id="tspan479" x="135.171" y="103.842">MemWrite</tspan></text></g><g id="control-aluOp" class="wires"><path id="path858-5-2-54-2" d="m133.063 99.234 41.511.038v94.366l26.449.004.022 3.686" class="wire"/><text id="text499" x="135.518" y="97.237" class="label"><tspan id="tspan497" x="135.518" y="97.237">ALUOp</tspan></text><text xml:space="preserve" id="text711-6-1-1" x="164.929" y="100.722" class="value-label"><tspan id="tspan709-4-3-1" x="164.929" y="100.722" style="text-anchor:middle">Label</tspan></text></g><g id="control-writeSrc" class="wires"><path id="path858-5-2-54-3" d="M133.625 92.837h169.711l-.097 45.024" class="wire"/><text id="text522" x="135.455" y="91.044" class="label"><tspan id="tspan520" x="135.455" y="91.044">WriteSrc</tspan></text><text xml:space="preserve" id="text711-6-1" x="164.95" y="94.269" class="value-label"><tspan id="tspan709-4-3" x="164.95" y="94.269" style="text-anchor:middle">Label</tspan></text></g><g id="control-memRead" class="wires"><path id="path858-5-2-54-6" d="M133.544 86.125h72.987v2.806h70.748l.072 54.784" class="wire"/><text id="text544" x="135.527" y="84.526" class="label"><tspan id="tspan542" x="135.527" y="84.526">MemRead</tspan></text></g><g id="control-branchZero" class="wires"><path id="path858-5-2-54-80" d="M133.088 79.737h107.737" class="wire"/><text id="text567" x="135.175" y="78.121" class="label"><tspan id="tspan565" x="135.175" y="78.121">BranchZero</tspan></text></g><g id="control-branchNotZero" class="wires"><path id="path858-5-2-54-80-2" d="M132.072 73.387h107.066" class="wire"/><text id="text593" x="135.175" y="71.932" class="label"><tspan id="tspan591" x="135.175" y="71.932">BranchNotZero</tspan></text></g><g id="control-jump" class="wires"><path id="path858-5-2-54-80-2-1" d="M130.448 67.037h109.433" class="wire"/><text id="text610" x="135.379" y="65.301" class="label"><tspan id="tspan608" x="135.379" y="65.301">Jump</tspan></text></g><g id="instrMem-instruction" class="wires"><path id="path858-8" d="m68.488 82.186-.076 71.403c-.089 25.46-.061 50.919.076 76.378" class="wire" style="marker-mid:url(#Junction)"/><path id="path858-5-2-5" d="M63.155 153.557h5.407" class="wire"/><path id="path858-02" d="M68.488 203.398h67.595" class="wire" style="marker-start:url(#Junction);marker-end:url(#Arrow)"/><path id="path9380" d="m126.777 201.092 4.217 4.216" class="wire" style="stroke-width:.265;stroke-miterlimit:4"/><text id="text643" x="72.699" y="200.517" class="label"><tspan id="tspan641" x="72.699" y="200.517">Instruction [31-0]</tspan></text><text id="text656" x="126.312" y="199.652" class="label"><tspan id="tspan654" x="126.312" y="199.652">32</tspan></text><text xml:space="preserve" id="text711-6-6-5-6-8" x="96.243" y="204.88" class="value-label"><tspan id="tspan709-4-2-8-2-4" x="96.243" y="204.88" style="text-anchor:middle">Label</tspan></text></g><g id="immGen-immediate" class="wires"><path id="path858-4" d="M156.991 203.395h21.825l-.056-146.942 29.996-.004" class="wire" style="marker-end:url(#Arrow)"/><path id="path858-84-4-2" d="M178.811 176.797h17.017" class="wire" style="marker-start:url(#Junction);marker-end:url(#Arrow)"/><path id="path9380-6" d="m160.644 201.092 4.217 4.216" class="wire" style="stroke-width:.265;stroke-miterlimit:4"/><text id="text675" x="160.18" y="199.651" class="label"><tspan id="tspan673" x="160.18" y="199.651">32</tspan></text><text xml:space="preserve" id="text711-6-6-5-6-8-3" x="165.968" y="204.848" class="value-label" style="text-align:start;text-anchor:start"><tspan id="tspan709-4-2-8-2-4-6" x="165.968" y="204.848" style="text-align:start;text-anchor:start">Label</tspan></text></g><g id="literalFour" class="wires"><path id="path-12468056" d="M38.26 44.365h7.779" class="wire" style="marker-end:url(#Arrow)"/><text id="text691" x="32.99" y="46.166" class="label"><tspan id="tspan689" x="32.99" y="46.166">4</tspan></text></g><g id="alu"><path id="path619" d="M213.411 175.461v-16.209l4.409-4.989-4.521-5.206V133.72l29.338 10.735v19.427s-25.384 9.359-29.222 11.575" class="component"/><text id="text707" x="228.405" y="155.866" class="component-name"><tspan id="tspan705" x="223.611" y="155.866">ALU</tspan></text><text xml:space="preserve" id="text728" x="85.136" y="200.546" class="label" style="text-align:end;text-anchor:end;white-space:pre;inline-size:13.7196" transform="translate(155.38 -43.156)"><tspan id="tspan2615" x="85.136" y="200.546">ALU<tspan id="tspan2617" y="200.546"> </tspan></tspan><tspan id="tspan2619" x="85.136" y="206.278">Result</tspan></text><text id="text743" x="230.576" y="148.828" class="label"><tspan id="tspan741" x="230.576" y="148.828">Zero</tspan></text></g><g id="branchAdder"><path id="path641" d="M209.693 65.004V48.795l4.408-4.989-4.52-5.206V23.263l29.338 10.735v19.428S213.535 62.784 209.696 65" class="component"/><text id="text759" x="225.322" y="45.304" class="component-name"><tspan id="tspan757" x="220.468" y="45.304">Add</tspan></text><text id="text773" x="227.676" y="44.648" class="label"><tspan id="tspan771" x="227.676" y="44.648">Sum</tspan></text></g><g id="writeSrcMux"><rect id="rect652" width="8.562" height="42.103" x="298.961" y="137.881" class="component" ry="5.62"/><text id="text787" x="300.244" y="159.692" class="label"><tspan id="tspan785" x="300.244" y="159.692">1</tspan></text><text id="text799" x="300.161" y="177.69" class="label"><tspan id="tspan797" x="300.161" y="177.69">0</tspan></text><text id="text811" x="300.051" y="143.9" class="label"><tspan id="tspan809" x="300.051" y="143.9">2</tspan></text><text id="text825" x="303.299" y="164.781" class="component-name" style="line-height:.85"><tspan id="tspan145187" x="303.299" y="164.781">M</tspan><tspan id="tspan145189" x="303.299" y="168.679">u</tspan><tspan id="tspan145191" x="303.299" y="172.577">x</tspan></text><path id="path1597-3-6-0" d="m298.985 175.77 8.613-16.753" class="wire" data-mux-val="0"/><path id="path1597-36-7" d="m298.908 159.074 8.69-.057" class="wire" data-mux-val="1"/><path id="path1597-36" d="m298.953 142.618 8.645 16.399" class="wire" data-mux-val="2"/></g><g id="aluInputMux"><rect id="rect665" width="8.516" height="25.584" x="196.144" y="155.931" class="component" ry="5.62"/><text id="text844" x="200.487" y="166.288" class="component-name" style="line-height:.85"><tspan id="tspan198512" x="200.487" y="166.288">M</tspan><tspan id="tspan198514" x="200.487" y="170.186">u</tspan><tspan id="tspan198516" x="200.487" y="174.084">x</tspan></text><text id="text856" x="198.051" y="179.636" class="label"><tspan id="tspan854" x="198.051" y="179.636">1</tspan></text><text id="text868" x="197.584" y="161.138" class="label"><tspan id="tspan866" x="197.584" y="161.138">0</tspan></text><path id="path1597" d="m196.2 160.639 8.595 7.134" class="wire" data-mux-val="0"/><path id="path1597-3-6" d="m196.163 176.797 8.632-9.024" class="wire" data-mux-val="1"/></g><g id="pcMux"><rect id="rect676" width="8.768" height="33.286" x="268.916" y="14.769" class="component" ry="5.62"/><text id="text886" x="273.272" y="28.563" class="component-name" style="line-height:.85"><tspan id="tspan208812" x="273.272" y="28.563">M</tspan><tspan id="tspan208814" x="273.272" y="32.461">u</tspan><tspan id="tspan208816" x="273.272" y="36.359">x</tspan></text><text id="text898" x="270.72" y="20.851" class="label"><tspan id="tspan896" x="270.72" y="20.851">0</tspan></text><text id="text910" x="270.789" y="44.951" class="label"><tspan id="tspan908" x="270.789" y="44.951">1</tspan></text><path id="path1597-3" d="m268.947 19.578 8.618 11.185" class="wire" data-mux-val="0"/><path id="path1597-3-6-56" d="m268.924 43.418 8.641-12.655" class="wire" data-mux-val="1"/></g><g id="instrMem-instruction-funct3" class="wires"><path id="path858-5-2-9" d="M68.488 97.003h43.941" class="wire" style="marker-start:url(#Junction);marker-end:url(#Arrow)"/><path id="path858-02-8" d="M68.488 219.851h96.407l-.025-11.471 25.674-.026" class="wire" style="marker-start:url(#Junction);marker-end:url(#Arrow)"/><text id="text944" x="71.047" y="94.036" class="label"><tspan id="tspan942" x="71.047" y="94.036">Instruction [14-12]</tspan></text><text id="text973" x="72.647" y="216.859" class="label"><tspan id="tspan971" x="72.647" y="216.859">Instruction [14-12]</tspan></text><text xml:space="preserve" id="text711-6" x="89.994" y="98.481" class="value-label"><tspan id="tspan709-4" x="89.994" y="98.481" style="text-anchor:middle">Label</tspan></text><text xml:space="preserve" id="text711-6-6-5-6-8-6-9" x="96.097" y="221.245" class="value-label"><tspan id="tspan709-4-2-8-2-4-2-9" x="96.097" y="221.245" style="text-anchor:middle">Label</tspan></text></g><g id="instrMem-instruction-funct7" class="wires"><path id="path858-02-8-3" d="m68.488 229.857 110.13-.001.03-13.959 11.699.003" class="wire" style="marker-start:url(#Junction);marker-end:url(#Arrow)"/><text id="text1008" x="72.629" y="226.904" class="label"><tspan id="tspan1006" x="72.629" y="226.904">Instruction [31-25]</tspan></text><text xml:space="preserve" id="text711-6-6-5-6-8-6-9-2" x="96.027" y="231.275" class="value-label"><tspan id="tspan709-4-2-8-2-4-2-9-0" x="96.027" y="231.275" style="text-anchor:middle">Label</tspan></text></g><g id="dataMem"><rect id="rect749" width="36.561" height="54.354" x="252.424" y="143.713" class="component"/><text xml:space="preserve" id="text1033" x="81.287" y="200.546" class="component-name" style="white-space:pre;inline-size:20.6888" transform="translate(196.695 -17.012)"><tspan id="tspan2621" x="81.287" y="200.546">Data<tspan id="tspan2623" y="200.546"> </tspan></tspan><tspan id="tspan2625" x="81.287" y="206.278">Memory</tspan></text><text xml:space="preserve" id="text1053" x="71.112" y="200.546" class="label" style="white-space:pre;inline-size:11.7672" transform="translate(183.23 -14.69)"><tspan id="tspan2627" x="71.112" y="200.546">Write </tspan><tspan id="tspan2629" x="71.112" y="206.278">Data</tspan></text><text id="text1071" x="254.858" y="160.717" class="label"><tspan id="tspan1069" x="254.858" y="160.717">Address</tspan></text><text xml:space="preserve" id="text1090" x="94.176" y="200.546" class="label" style="text-align:end;text-anchor:end;white-space:pre;inline-size:18.4052" transform="translate(192.82 -42.639)"><tspan id="tspan2631" x="94.176" y="200.546">Read<tspan id="tspan2633" y="200.546"> </tspan></tspan><tspan id="tspan2635" x="94.176" y="206.278">Data</tspan></text><text id="text1106" x="259.784" y="147.605" class="label-small"><tspan id="tspan1104" x="259.784" y="147.605">Write</tspan></text><text id="text1121" x="273.385" y="147.581" class="label-small"><tspan id="tspan1119" x="273.385" y="147.581">Read</tspan></text></g><g id="regFile"><rect id="rect1052" width="43.036" height="60.932" x="125.03" y="124.076" class="component"/><text id="text1143" x="166.011" y="182.216" class="component-name"><tspan id="tspan1141" x="154.07" y="182.216">Registers</tspan></text><text xml:space="preserve" id="text1167" x="71.112" y="200.546" class="label" style="white-space:pre;inline-size:27.193" transform="translate(56.365 -70.345)"><tspan id="tspan2637" x="71.112" y="200.546">Read </tspan><tspan id="tspan2639" x="71.112" y="206.278">Register 1</tspan></text><text xml:space="preserve" id="text1191" x="71.112" y="200.546" class="label" style="white-space:pre;inline-size:28.565" transform="translate(56.255 -54.872)"><tspan id="tspan2641" x="71.112" y="200.546">Read </tspan><tspan id="tspan2643" x="71.112" y="206.278">Register 2</tspan></text><text xml:space="preserve" id="text1215" x="71.112" y="200.546" class="label" style="white-space:pre;inline-size:28.0606" transform="translate(56.309 -39.465)"><tspan id="tspan2645" x="71.112" y="200.546">Write </tspan><tspan id="tspan2647" x="71.112" y="206.278">Register</tspan></text><text xml:space="preserve" id="text1235" x="71.112" y="200.546" class="label" style="white-space:pre;inline-size:20.9339" transform="translate(56.488 -24.183)"><tspan id="tspan2649" x="71.112" y="200.546">Write </tspan><tspan id="tspan2651" x="71.112" y="206.278">Data</tspan></text><text xml:space="preserve" id="text1255" x="85.528" y="200.546" class="label" style="text-align:end;text-anchor:end;white-space:pre;inline-size:21.1714" transform="translate(79.766 -41.22)"><tspan id="tspan2653" x="85.528" y="200.546">Read<tspan id="tspan2655" y="200.546"> </tspan></tspan><tspan id="tspan2657" x="85.528" y="206.278">Data 2</tspan></text><text xml:space="preserve" id="text1275" x="85.564" y="200.546" class="label" style="text-align:end;text-anchor:end;white-space:pre;inline-size:17.8555" transform="translate(80.18 -62.938)"><tspan id="tspan2659" x="85.564" y="200.546">Read<tspan id="tspan2661" y="200.546"> </tspan></tspan><tspan id="tspan2663" x="85.564" y="206.278">Data 1</tspan></text><text id="text1291" x="141.345" y="128.04" class="label-small"><tspan id="tspan1289" x="141.345" y="128.04">Write</tspan></text></g><g id="jalrMux" style="display:inline;mix-blend-mode:normal"><rect id="rect891" width="8.516" height="25.584" x="192.584" y="21.45" class="component" ry="5.62"/><text id="text1307" x="196.812" y="31.807" class="component-name" style="line-height:.85"><tspan id="tspan203118" x="196.812" y="31.807">M</tspan><tspan id="tspan203120" x="196.812" y="35.705">u</tspan><tspan id="tspan203122" x="196.812" y="39.603">x</tspan></text><text id="text1319" x="195.434" y="45.155" class="label"><tspan id="tspan1317" x="195.434" y="45.155">1</tspan></text><text id="text1331" x="194.967" y="26.657" class="label"><tspan id="tspan1329" x="194.967" y="26.657">0</tspan></text><path id="path1597-7" d="m192.614 26.367 8.414 8.015" class="wire" data-mux-val="0"/><path id="path1597-3-6-5" d="m192.618 42.237 8.41-7.855" class="wire" data-mux-val="1"/></g><g id="control-jalr" class="wires"><path id="path858-5-2-54-80-2-1-4" d="M126.484 59.991h41.537v-8.69h28.787v-4.276" class="wire"/><text id="text1350" x="135.379" y="58.532" class="label"><tspan id="tspan1348" x="135.379" y="58.532">Jalr</tspan></text></g><path id="jalrMux-out" d="M201.028 34.382h2.576v-2.617h5.04" class="wire" style="marker-end:url(#Arrow)"/><g id="branchAdder-result" class="wires" style="display:inline"><path id="path-ba-1" d="M239.024 43.38h29.455" class="wire" style="marker-end:url(#Arrow)"/><text xml:space="preserve" id="text711-6-6-5-6-8-6-9-2-6-0" x="252.293" y="44.749" class="value-label"><tspan id="tspan709-4-2-8-2-4-2-9-0-6-6" x="252.293" y="44.749" style="text-anchor:middle">Label</tspan></text></g><g id="pcMux-out" class="wires" style="display:inline"><path id="path-pco-1" d="m277.565 30.763 4.695-.004.064-25.376-275.867.094-1.47 129.754 5.189-.015" class="wire" style="marker-end:url(#Arrow)"/><text xml:space="preserve" id="text711-6-6-5-6-8-6-9-2-6-0-9" x="189.67" y="6.941" class="value-label"><tspan id="tspan709-4-2-8-2-4-2-9-0-6-6-0" x="189.67" y="6.941" style="text-anchor:middle">Label</tspan></text></g><g id="aluControl-aluControl" class="wires" style="display:inline"><path id="path12345678899" d="m211.415 212.383 15.958-.008.031-42.707" class="wire"/><text xml:space="preserve" id="text711-6-6-5-6-8-0" x="227.4" y="202.223" class="value-label"><tspan id="tspan709-4-2-8-2-4-3" x="227.4" y="202.223" style="text-anchor:middle">Label</tspan></text></g><g id="writeSrcMux-out" class="wires" style="display:inline"><path id="path-wsm-2" d="m307.598 159.017 3.661-.011.034 76.942-194.303-.09-.081-58.091 7.264-.01" class="wire" style="marker-end:url(#Arrow)"/><text xml:space="preserve" id="text711-6-6-5-6-8-3-2-6-7" x="270.831" y="237.396" class="value-label" style="text-anchor:middle"><tspan id="tspan709-4-2-8-2-4-6-6-8-2" x="270.831" y="237.396" style="text-anchor:middle">Label</tspan></text></g></g></svg>